<svg xmlns="http://www.w3.org/2000/svg" xmlns:xlink="http://www.w3.org/1999/xlink" width="140" zoomAndPan="magnify" viewBox="0 0 104.88 30.000001" height="40" preserveAspectRatio="xMidYMid meet" version="1.0"><defs><g/><clipPath id="5f7608f458"><path d="M 33.523438 10.070312 L 41.714844 10.070312 L 41.714844 21.757812 L 33.523438 21.757812 Z M 33.523438 10.070312 " clip-rule="nonzero"/></clipPath><clipPath id="a1878e5dba"><path d="M 48.75 3.398438 L 50.011719 3.398438 L 50.011719 4.609375 L 48.75 4.609375 Z M 48.75 3.398438 " clip-rule="nonzero"/></clipPath></defs><g fill="#cea36a" fill-opacity="1"><g transform="translate(40.428855, 21.184284)"><g><path d="M 3.828125 0.171875 C 3.140625 0.171875 2.472656 0.0859375 1.828125 -0.078125 C 1.179688 -0.253906 0.65625 -0.484375 0.25 -0.765625 L 1.046875 -2.53125 C 1.421875 -2.28125 1.859375 -2.078125 2.359375 -1.921875 C 2.859375 -1.765625 3.347656 -1.6875 3.828125 -1.6875 C 4.753906 -1.6875 5.21875 -1.914062 5.21875 -2.375 C 5.21875 -2.625 5.082031 -2.804688 4.8125 -2.921875 C 4.550781 -3.035156 4.132812 -3.160156 3.5625 -3.296875 C 2.914062 -3.429688 2.378906 -3.578125 1.953125 -3.734375 C 1.523438 -3.890625 1.160156 -4.140625 0.859375 -4.484375 C 0.554688 -4.828125 0.40625 -5.296875 0.40625 -5.890625 C 0.40625 -6.398438 0.546875 -6.863281 0.828125 -7.28125 C 1.109375 -7.695312 1.523438 -8.023438 2.078125 -8.265625 C 2.640625 -8.515625 3.328125 -8.640625 4.140625 -8.640625 C 4.703125 -8.640625 5.253906 -8.578125 5.796875 -8.453125 C 6.335938 -8.328125 6.8125 -8.140625 7.21875 -7.890625 L 6.484375 -6.125 C 5.671875 -6.550781 4.890625 -6.765625 4.140625 -6.765625 C 3.660156 -6.765625 3.3125 -6.691406 3.09375 -6.546875 C 2.875 -6.410156 2.765625 -6.234375 2.765625 -6.015625 C 2.765625 -5.785156 2.894531 -5.613281 3.15625 -5.5 C 3.414062 -5.382812 3.832031 -5.269531 4.40625 -5.15625 C 5.050781 -5.019531 5.582031 -4.867188 6 -4.703125 C 6.425781 -4.546875 6.796875 -4.296875 7.109375 -3.953125 C 7.421875 -3.617188 7.578125 -3.15625 7.578125 -2.5625 C 7.578125 -2.050781 7.429688 -1.585938 7.140625 -1.171875 C 6.859375 -0.765625 6.4375 -0.4375 5.875 -0.1875 C 5.3125 0.0507812 4.628906 0.171875 3.828125 0.171875 Z M 3.828125 0.171875 "/></g></g></g><g fill="#cea36a" fill-opacity="1"><g transform="translate(47.527271, 21.184284)"><g><path d="M 5.265625 -0.265625 C 5.066406 -0.140625 4.828125 -0.046875 4.546875 0.015625 C 4.273438 0.078125 3.984375 0.109375 3.671875 0.109375 C 2.804688 0.109375 2.144531 -0.0976562 1.6875 -0.515625 C 1.226562 -0.941406 1 -1.566406 1 -2.390625 L 1 -4.59375 L 0.046875 -4.59375 L 0.046875 -6.3125 L 1 -6.3125 L 1 -8.015625 L 3.296875 -8.015625 L 3.296875 -6.3125 L 4.796875 -6.3125 L 4.796875 -4.59375 L 3.296875 -4.59375 L 3.296875 -2.421875 C 3.296875 -2.179688 3.359375 -1.992188 3.484375 -1.859375 C 3.609375 -1.734375 3.773438 -1.671875 3.984375 -1.671875 C 4.253906 -1.671875 4.488281 -1.738281 4.6875 -1.875 Z M 5.265625 -0.265625 "/></g></g></g><g fill="#cea36a" fill-opacity="1"><g transform="translate(52.207101, 21.184284)"><g><path d="M 3.53125 -6.65625 C 4.613281 -6.65625 5.441406 -6.40625 6.015625 -5.90625 C 6.585938 -5.414062 6.875 -4.660156 6.875 -3.640625 L 6.875 0 L 4.734375 0 L 4.734375 -0.84375 C 4.410156 -0.207031 3.769531 0.109375 2.8125 0.109375 C 2.300781 0.109375 1.859375 0.0195312 1.484375 -0.15625 C 1.117188 -0.332031 0.835938 -0.570312 0.640625 -0.875 C 0.453125 -1.175781 0.359375 -1.519531 0.359375 -1.90625 C 0.359375 -2.53125 0.597656 -3.015625 1.078125 -3.359375 C 1.554688 -3.703125 2.289062 -3.875 3.28125 -3.875 L 4.578125 -3.875 C 4.535156 -4.5625 4.070312 -4.90625 3.1875 -4.90625 C 2.875 -4.90625 2.554688 -4.851562 2.234375 -4.75 C 1.910156 -4.65625 1.640625 -4.519531 1.421875 -4.34375 L 0.640625 -5.90625 C 1.003906 -6.144531 1.445312 -6.328125 1.96875 -6.453125 C 2.488281 -6.585938 3.007812 -6.65625 3.53125 -6.65625 Z M 3.453125 -1.34375 C 3.710938 -1.34375 3.941406 -1.40625 4.140625 -1.53125 C 4.347656 -1.664062 4.492188 -1.859375 4.578125 -2.109375 L 4.578125 -2.671875 L 3.59375 -2.671875 C 2.925781 -2.671875 2.59375 -2.445312 2.59375 -2 C 2.59375 -1.800781 2.664062 -1.640625 2.8125 -1.515625 C 2.96875 -1.398438 3.179688 -1.34375 3.453125 -1.34375 Z M 3.453125 -1.34375 "/></g></g></g><g fill="#cea36a" fill-opacity="1"><g transform="translate(59.075747, 21.184284)"><g><path d="M 2.921875 -5.765625 C 3.160156 -6.066406 3.46875 -6.289062 3.84375 -6.4375 C 4.21875 -6.582031 4.644531 -6.65625 5.125 -6.65625 L 5.125 -4.59375 C 4.914062 -4.613281 4.742188 -4.625 4.609375 -4.625 C 4.117188 -4.625 3.734375 -4.488281 3.453125 -4.21875 C 3.171875 -3.957031 3.03125 -3.554688 3.03125 -3.015625 L 3.03125 0 L 0.734375 0 L 0.734375 -6.5625 L 2.921875 -6.5625 Z M 2.921875 -5.765625 "/></g></g></g><g clip-path="url(#5f7608f458)"><path fill="#cea36a" d="M 34.367188 16.394531 C 34.890625 15.835938 36.503906 14.1875 37.707031 13.871094 C 37.664062 13.871094 37.621094 13.863281 37.578125 13.859375 C 37.488281 13.84375 37.398438 13.816406 37.3125 13.777344 C 36.792969 13.542969 36.542969 12.929688 36.75 12.398438 C 36.96875 11.847656 37.589844 11.570312 38.144531 11.785156 C 38.449219 11.902344 38.667969 12.136719 38.769531 12.417969 C 38.808594 12.519531 38.828125 12.625 38.835938 12.730469 C 38.953125 12.660156 40.316406 11.796875 41.027344 10.285156 C 41.113281 10.105469 41.328125 10.023438 41.511719 10.113281 C 41.683594 10.195312 41.757812 10.398438 41.691406 10.578125 C 41.496094 11.082031 41.078125 12.042969 40.4375 12.84375 C 40.0625 13.3125 39.890625 13.917969 39.953125 14.519531 C 40.09375 15.910156 40.019531 18.558594 38.066406 21.152344 C 37.960938 21.292969 37.765625 21.335938 37.609375 21.253906 C 37.425781 21.15625 37.359375 20.925781 37.464844 20.746094 C 37.78125 20.222656 38.324219 19.136719 38.140625 18.089844 C 38.140625 18.089844 36.632812 20.769531 34.035156 21.734375 C 33.910156 21.785156 33.765625 21.753906 33.664062 21.660156 L 33.636719 21.636719 C 33.457031 21.472656 33.492188 21.175781 33.707031 21.054688 C 34.417969 20.65625 35.796875 19.757812 36.488281 18.496094 C 37.441406 16.753906 37.140625 16.308594 37.789062 15.128906 C 37.789062 15.128906 35.992188 15.472656 34.871094 16.84375 C 34.71875 17.027344 34.433594 17.003906 34.316406 16.800781 C 34.242188 16.671875 34.265625 16.507812 34.367188 16.394531 " fill-opacity="1" fill-rule="nonzero"/></g><path fill="#cea36a" d="M 46.046875 11.296875 L 46.0625 11.6875 L 46.386719 11.894531 L 46.023438 12.027344 L 45.925781 12.402344 L 45.6875 12.097656 L 45.296875 12.121094 L 45.515625 11.800781 L 45.375 11.4375 L 45.746094 11.542969 L 46.046875 11.296875 " fill-opacity="1" fill-rule="nonzero"/><path fill="#cea36a" d="M 37.390625 7.789062 L 37.667969 7.972656 L 37.972656 7.847656 L 37.886719 8.167969 L 38.101562 8.421875 L 37.769531 8.4375 L 37.59375 8.71875 L 37.476562 8.40625 L 37.15625 8.328125 L 37.414062 8.121094 L 37.390625 7.789062 " fill-opacity="1" fill-rule="nonzero"/><g clip-path="url(#a1878e5dba)"><path fill="#cea36a" d="M 49.386719 3.402344 L 49.578125 3.792969 L 50.011719 3.855469 L 49.699219 4.160156 L 49.773438 4.589844 L 49.386719 4.386719 L 49 4.589844 L 49.074219 4.160156 L 48.761719 3.855469 L 49.191406 3.792969 L 49.386719 3.402344 " fill-opacity="1" fill-rule="nonzero"/></g><path fill="#cea36a" d="M 47.019531 6.683594 L 46.992188 7.285156 L 47.472656 7.648438 L 46.894531 7.8125 L 46.695312 8.378906 L 46.363281 7.878906 L 45.761719 7.867188 L 46.136719 7.394531 L 45.960938 6.816406 L 46.527344 7.03125 L 47.019531 6.683594 " fill-opacity="1" fill-rule="nonzero"/><path fill="#cea36a" d="M 44.78125 1.210938 L 45.007812 1.671875 L 45.515625 1.746094 L 45.148438 2.105469 L 45.234375 2.613281 L 44.78125 2.375 L 44.324219 2.613281 L 44.410156 2.105469 L 44.042969 1.746094 L 44.550781 1.671875 L 44.78125 1.210938 " fill-opacity="1" fill-rule="nonzero"/><path fill="#cea36a" d="M 42.808594 7.382812 L 42.921875 8.03125 L 43.515625 8.304688 L 42.9375 8.613281 L 42.859375 9.261719 L 42.390625 8.804688 L 41.746094 8.9375 L 42.035156 8.347656 L 41.714844 7.773438 L 42.363281 7.867188 L 42.808594 7.382812 " fill-opacity="1" fill-rule="nonzero"/><path fill="#cea36a" d="M 41.085938 2.472656 L 41.203125 2.710938 L 41.460938 2.746094 L 41.273438 2.929688 L 41.320312 3.1875 L 41.085938 3.066406 L 40.855469 3.1875 L 40.898438 2.929688 L 40.710938 2.746094 L 40.96875 2.710938 L 41.085938 2.472656 " fill-opacity="1" fill-rule="nonzero"/><path fill="#cea36a" d="M 44.78125 4.734375 L 44.839844 4.851562 L 44.96875 4.871094 L 44.875 4.964844 L 44.894531 5.09375 L 44.78125 5.03125 L 44.664062 5.09375 L 44.6875 4.964844 L 44.59375 4.871094 L 44.722656 4.851562 L 44.78125 4.734375 " fill-opacity="1" fill-rule="nonzero"/><path fill="#cea36a" d="M 40.804688 5.09375 L 40.890625 5.269531 L 41.085938 5.296875 L 40.945312 5.433594 L 40.980469 5.628906 L 40.804688 5.535156 L 40.628906 5.628906 L 40.664062 5.433594 L 40.523438 5.296875 L 40.71875 5.269531 L 40.804688 5.09375 " fill-opacity="1" fill-rule="nonzero"/><path fill="#cea36a" d="M 47.472656 10.488281 L 47.5625 10.664062 L 47.753906 10.691406 L 47.613281 10.828125 L 47.648438 11.023438 L 47.472656 10.929688 L 47.300781 11.023438 L 47.332031 10.828125 L 47.191406 10.691406 L 47.386719 10.664062 L 47.472656 10.488281 " fill-opacity="1" fill-rule="nonzero"/><path fill="#cea36a" d="M 49.386719 6.996094 L 49.472656 7.171875 L 49.667969 7.203125 L 49.527344 7.339844 L 49.558594 7.53125 L 49.386719 7.441406 L 49.210938 7.53125 L 49.246094 7.339844 L 49.105469 7.203125 L 49.300781 7.171875 L 49.386719 6.996094 " fill-opacity="1" fill-rule="nonzero"/><path fill="#cea36a" d="M 39.820312 0.015625 L 39.90625 0.191406 L 40.101562 0.222656 L 39.960938 0.359375 L 39.992188 0.550781 L 39.820312 0.460938 L 39.644531 0.550781 L 39.679688 0.359375 L 39.535156 0.222656 L 39.730469 0.191406 L 39.820312 0.015625 " fill-opacity="1" fill-rule="nonzero"/><path fill="#cea36a" d="M 35.976562 5.09375 L 36.0625 5.269531 L 36.257812 5.296875 L 36.117188 5.433594 L 36.152344 5.628906 L 35.976562 5.535156 L 35.800781 5.628906 L 35.835938 5.433594 L 35.695312 5.296875 L 35.890625 5.269531 L 35.976562 5.09375 " fill-opacity="1" fill-rule="nonzero"/></svg>