<svg xmlns="http://www.w3.org/2000/svg" xmlns:xlink="http://www.w3.org/1999/xlink" width="140" zoomAndPan="magnify" viewBox="0 0 104.88 30.000001" height="40" preserveAspectRatio="xMidYMid meet" version="1.0"><defs><g/><clipPath id="b450550948"><path d="M 40.90625 2.902344 L 64 2.902344 L 64 18.144531 L 40.90625 18.144531 Z M 40.90625 2.902344 " clip-rule="nonzero"/></clipPath><clipPath id="baeb942f05"><path d="M 61.339844 12.769531 L 66.613281 12.769531 L 66.613281 18.042969 L 61.339844 18.042969 Z M 61.339844 12.769531 " clip-rule="nonzero"/></clipPath><clipPath id="df4de444de"><path d="M 63.976562 12.769531 C 62.519531 12.769531 61.339844 13.949219 61.339844 15.40625 C 61.339844 16.863281 62.519531 18.042969 63.976562 18.042969 C 65.429688 18.042969 66.613281 16.863281 66.613281 15.40625 C 66.613281 13.949219 65.429688 12.769531 63.976562 12.769531 Z M 63.976562 12.769531 " clip-rule="nonzero"/></clipPath></defs><g clip-path="url(#b450550948)"><path fill="#ffffff" d="M 58.144531 16.925781 L 57.941406 17.453125 L 52.671875 17.453125 L 55.507812 9.988281 L 56.261719 8 C 57.300781 5.261719 59.664062 3.492188 62.273438 3.492188 L 63.246094 3.492188 Z M 48.613281 12.945312 C 47.574219 15.683594 45.214844 17.453125 42.601562 17.453125 L 41.628906 17.453125 L 46.730469 4.027344 L 49.367188 10.96875 Z M 63.90625 3.039062 C 63.851562 2.957031 63.761719 2.910156 63.667969 2.910156 L 62.273438 2.910156 C 59.417969 2.910156 56.847656 4.828125 55.71875 7.792969 L 55.195312 9.171875 L 52.914062 3.160156 C 52.90625 3.117188 52.890625 3.074219 52.863281 3.039062 C 52.8125 2.964844 52.730469 2.917969 52.640625 2.914062 C 52.636719 2.914062 52.628906 2.910156 52.625 2.910156 L 46.726562 2.910156 C 46.722656 2.910156 46.71875 2.914062 46.714844 2.914062 C 46.710938 2.914062 46.710938 2.914062 46.710938 2.914062 C 46.621094 2.917969 46.539062 2.964844 46.488281 3.039062 C 46.460938 3.074219 46.445312 3.117188 46.4375 3.160156 L 40.9375 17.640625 C 40.90625 17.726562 40.917969 17.828125 40.972656 17.90625 C 41.023438 17.984375 41.113281 18.03125 41.210938 18.03125 L 42.601562 18.03125 C 45.457031 18.03125 48.03125 16.117188 49.15625 13.152344 L 49.675781 11.785156 L 51.980469 17.84375 C 51.980469 17.847656 51.980469 17.847656 51.980469 17.847656 C 51.984375 17.855469 51.984375 17.863281 51.988281 17.867188 C 51.996094 17.882812 52.003906 17.894531 52.011719 17.90625 C 52.019531 17.917969 52.023438 17.925781 52.035156 17.933594 C 52.039062 17.9375 52.042969 17.941406 52.046875 17.945312 C 52.050781 17.953125 52.054688 17.957031 52.058594 17.960938 C 52.0625 17.960938 52.066406 17.964844 52.070312 17.96875 C 52.082031 17.976562 52.09375 17.984375 52.105469 17.992188 C 52.109375 17.996094 52.117188 18 52.125 18.003906 C 52.128906 18.003906 52.132812 18.007812 52.140625 18.011719 C 52.140625 18.011719 52.144531 18.011719 52.144531 18.011719 C 52.148438 18.015625 52.15625 18.015625 52.164062 18.019531 C 52.167969 18.019531 52.175781 18.023438 52.179688 18.023438 C 52.1875 18.027344 52.199219 18.027344 52.207031 18.027344 C 52.214844 18.03125 52.21875 18.03125 52.226562 18.03125 C 52.234375 18.03125 52.242188 18.03125 52.25 18.03125 L 58.144531 18.03125 C 58.152344 18.03125 58.160156 18.03125 58.167969 18.03125 C 58.171875 18.03125 58.179688 18.03125 58.1875 18.027344 C 58.210938 18.023438 58.230469 18.019531 58.253906 18.011719 C 58.257812 18.007812 58.265625 18.003906 58.269531 18.003906 C 58.277344 18 58.28125 17.996094 58.289062 17.992188 C 58.289062 17.992188 58.292969 17.992188 58.292969 17.988281 C 58.304688 17.984375 58.3125 17.976562 58.320312 17.96875 C 58.328125 17.964844 58.332031 17.960938 58.335938 17.960938 C 58.339844 17.957031 58.34375 17.953125 58.347656 17.949219 C 58.371094 17.925781 58.390625 17.898438 58.402344 17.867188 C 58.40625 17.863281 58.410156 17.855469 58.414062 17.847656 C 58.414062 17.847656 58.414062 17.847656 58.414062 17.84375 L 63.9375 3.304688 C 63.972656 3.214844 63.960938 3.117188 63.90625 3.039062 " fill-opacity="1" fill-rule="nonzero"/></g><g clip-path="url(#baeb942f05)"><g clip-path="url(#df4de444de)"><path fill="#ffbd59" d="M 61.339844 12.769531 L 66.613281 12.769531 L 66.613281 18.042969 L 61.339844 18.042969 Z M 61.339844 12.769531 " fill-opacity="1" fill-rule="nonzero"/></g></g><g fill="#ffffff" fill-opacity="1"><g transform="translate(38.711553, 24.118636)"><g><path d="M 3.546875 -4.71875 L 4.546875 -4.71875 L 4.546875 0 L 3.59375 0 L 1.3125 -3.078125 L 1.3125 0 L 0.3125 0 L 0.3125 -4.71875 L 1.265625 -4.71875 L 3.546875 -1.625 Z M 3.546875 -4.71875 "/></g></g></g><g fill="#ffffff" fill-opacity="1"><g transform="translate(43.566747, 24.118636)"><g><path d="M 1.9375 -3.390625 C 2.175781 -3.390625 2.398438 -3.335938 2.609375 -3.234375 C 2.816406 -3.140625 2.992188 -3.007812 3.140625 -2.84375 C 3.285156 -2.6875 3.394531 -2.503906 3.46875 -2.296875 C 3.550781 -2.085938 3.59375 -1.867188 3.59375 -1.640625 C 3.59375 -1.503906 3.578125 -1.363281 3.546875 -1.21875 L 1.1875 -1.21875 C 1.269531 -1.0625 1.394531 -0.929688 1.5625 -0.828125 C 1.726562 -0.722656 1.90625 -0.671875 2.09375 -0.671875 C 2.289062 -0.671875 2.457031 -0.6875 2.59375 -0.71875 C 2.738281 -0.75 2.878906 -0.789062 3.015625 -0.84375 L 3.3125 -0.28125 C 3.144531 -0.164062 2.957031 -0.078125 2.75 -0.015625 C 2.539062 0.046875 2.316406 0.078125 2.078125 0.078125 C 1.816406 0.078125 1.570312 0.0351562 1.34375 -0.046875 C 1.113281 -0.140625 0.914062 -0.265625 0.75 -0.421875 C 0.582031 -0.578125 0.445312 -0.757812 0.34375 -0.96875 C 0.25 -1.1875 0.203125 -1.414062 0.203125 -1.65625 C 0.203125 -1.894531 0.242188 -2.117188 0.328125 -2.328125 C 0.421875 -2.535156 0.546875 -2.71875 0.703125 -2.875 C 0.859375 -3.03125 1.039062 -3.15625 1.25 -3.25 C 1.46875 -3.34375 1.695312 -3.390625 1.9375 -3.390625 Z M 2.6875 -1.9375 C 2.632812 -2.125 2.535156 -2.273438 2.390625 -2.390625 C 2.253906 -2.515625 2.101562 -2.578125 1.9375 -2.578125 C 1.75 -2.578125 1.582031 -2.515625 1.4375 -2.390625 C 1.300781 -2.273438 1.207031 -2.125 1.15625 -1.9375 Z M 2.6875 -1.9375 "/></g></g></g><g fill="#ffffff" fill-opacity="1"><g transform="translate(47.524061, 24.118636)"><g><path d="M 1.53125 -1.71875 L 0.359375 -3.296875 L 1.484375 -3.296875 L 2.078125 -2.421875 L 2.65625 -3.296875 L 3.796875 -3.296875 L 2.609375 -1.71875 L 3.90625 0 L 2.765625 0 L 2.0625 -1.03125 L 1.375 0 L 0.234375 0 Z M 1.53125 -1.71875 "/></g></g></g><g fill="#ffffff" fill-opacity="1"><g transform="translate(51.660951, 24.118636)"><g><path d="M 2.390625 -3.296875 L 3.3125 -3.296875 L 3.3125 0 L 2.515625 0 L 2.390625 -0.25 C 2.285156 -0.175781 2.164062 -0.113281 2.03125 -0.0625 C 1.894531 -0.0195312 1.75 0 1.59375 0 C 1.46875 0 1.328125 -0.015625 1.171875 -0.046875 C 1.023438 -0.0859375 0.882812 -0.15625 0.75 -0.25 C 0.613281 -0.351562 0.5 -0.488281 0.40625 -0.65625 C 0.320312 -0.832031 0.28125 -1.054688 0.28125 -1.328125 L 0.28125 -3.296875 L 1.203125 -3.296875 L 1.203125 -1.359375 C 1.203125 -1.265625 1.21875 -1.179688 1.25 -1.109375 C 1.28125 -1.035156 1.320312 -0.976562 1.375 -0.9375 C 1.4375 -0.894531 1.503906 -0.863281 1.578125 -0.84375 C 1.648438 -0.820312 1.722656 -0.8125 1.796875 -0.8125 C 1.859375 -0.8125 1.921875 -0.820312 1.984375 -0.84375 C 2.054688 -0.863281 2.117188 -0.894531 2.171875 -0.9375 C 2.234375 -0.976562 2.285156 -1.035156 2.328125 -1.109375 C 2.367188 -1.179688 2.390625 -1.265625 2.390625 -1.359375 Z M 2.390625 -3.296875 "/></g></g></g><g fill="#ffffff" fill-opacity="1"><g transform="translate(55.272417, 24.118636)"><g><path d="M 2.390625 -1.734375 C 2.640625 -1.554688 2.765625 -1.304688 2.765625 -0.984375 C 2.765625 -0.835938 2.726562 -0.703125 2.65625 -0.578125 C 2.59375 -0.453125 2.5 -0.335938 2.375 -0.234375 C 2.257812 -0.140625 2.117188 -0.0625 1.953125 0 C 1.796875 0.0507812 1.625 0.078125 1.4375 0.078125 C 1.300781 0.078125 1.164062 0.0546875 1.03125 0.015625 C 0.90625 -0.015625 0.785156 -0.0625 0.671875 -0.125 C 0.566406 -0.1875 0.472656 -0.257812 0.390625 -0.34375 C 0.304688 -0.4375 0.242188 -0.535156 0.203125 -0.640625 C 0.304688 -0.691406 0.421875 -0.742188 0.546875 -0.796875 C 0.671875 -0.859375 0.78125 -0.914062 0.875 -0.96875 C 0.914062 -0.894531 0.976562 -0.832031 1.0625 -0.78125 C 1.144531 -0.726562 1.257812 -0.703125 1.40625 -0.703125 C 1.550781 -0.703125 1.660156 -0.734375 1.734375 -0.796875 C 1.804688 -0.867188 1.84375 -0.9375 1.84375 -1 C 1.84375 -1.050781 1.816406 -1.09375 1.765625 -1.125 C 1.722656 -1.164062 1.671875 -1.195312 1.609375 -1.21875 C 1.515625 -1.25 1.4375 -1.265625 1.375 -1.265625 C 1.320312 -1.273438 1.257812 -1.289062 1.1875 -1.3125 C 0.945312 -1.363281 0.765625 -1.4375 0.640625 -1.53125 C 0.515625 -1.632812 0.421875 -1.734375 0.359375 -1.828125 C 0.296875 -1.929688 0.257812 -2.023438 0.25 -2.109375 C 0.25 -2.203125 0.25 -2.273438 0.25 -2.328125 C 0.25 -2.460938 0.28125 -2.59375 0.34375 -2.71875 C 0.40625 -2.851562 0.488281 -2.96875 0.59375 -3.0625 C 0.707031 -3.15625 0.835938 -3.226562 0.984375 -3.28125 C 1.128906 -3.34375 1.28125 -3.375 1.4375 -3.375 C 1.582031 -3.375 1.71875 -3.351562 1.84375 -3.3125 C 1.96875 -3.28125 2.078125 -3.226562 2.171875 -3.15625 C 2.273438 -3.082031 2.363281 -2.992188 2.4375 -2.890625 C 2.507812 -2.796875 2.566406 -2.691406 2.609375 -2.578125 L 1.890625 -2.34375 C 1.859375 -2.414062 1.800781 -2.476562 1.71875 -2.53125 C 1.644531 -2.582031 1.5625 -2.609375 1.46875 -2.609375 C 1.375 -2.609375 1.296875 -2.578125 1.234375 -2.515625 C 1.179688 -2.453125 1.15625 -2.390625 1.15625 -2.328125 C 1.15625 -2.242188 1.179688 -2.179688 1.234375 -2.140625 C 1.285156 -2.097656 1.347656 -2.070312 1.421875 -2.0625 C 1.460938 -2.050781 1.503906 -2.039062 1.546875 -2.03125 C 1.597656 -2.03125 1.648438 -2.023438 1.703125 -2.015625 C 1.859375 -1.972656 1.988281 -1.929688 2.09375 -1.890625 C 2.207031 -1.847656 2.304688 -1.796875 2.390625 -1.734375 Z M 2.390625 -1.734375 "/></g></g></g><g fill="#ffffff" fill-opacity="1"><g transform="translate(58.218789, 24.118636)"><g/></g></g><g fill="#ffffff" fill-opacity="1"><g transform="translate(60.047799, 24.118636)"><g><path d="M 2.03125 -4.71875 L 2.03125 -3.875 L 1.671875 -3.875 L 1.671875 -0.84375 L 2.03125 -0.84375 L 2.03125 0 L 0.3125 0 L 0.3125 -0.84375 L 0.671875 -0.84375 L 0.671875 -3.875 L 0.3125 -3.875 L 0.3125 -4.71875 Z M 2.03125 -4.71875 "/></g></g></g><g fill="#ffffff" fill-opacity="1"><g transform="translate(62.382282, 24.118636)"><g><path d="M 2.34375 -4.71875 C 2.53125 -4.71875 2.707031 -4.679688 2.875 -4.609375 C 3.039062 -4.535156 3.179688 -4.4375 3.296875 -4.3125 C 3.421875 -4.1875 3.519531 -4.035156 3.59375 -3.859375 C 3.664062 -3.691406 3.703125 -3.507812 3.703125 -3.3125 C 3.703125 -3.113281 3.664062 -2.929688 3.59375 -2.765625 C 3.519531 -2.597656 3.421875 -2.445312 3.296875 -2.3125 C 3.179688 -2.1875 3.039062 -2.085938 2.875 -2.015625 C 2.707031 -1.941406 2.53125 -1.90625 2.34375 -1.90625 L 1.3125 -1.90625 L 1.3125 0 L 0.3125 0 L 0.3125 -4.71875 Z M 2.21875 -2.828125 C 2.34375 -2.828125 2.453125 -2.875 2.546875 -2.96875 C 2.648438 -3.0625 2.703125 -3.175781 2.703125 -3.3125 C 2.703125 -3.445312 2.648438 -3.5625 2.546875 -3.65625 C 2.453125 -3.75 2.34375 -3.796875 2.21875 -3.796875 L 1.3125 -3.796875 L 1.3125 -2.828125 Z M 2.21875 -2.828125 "/></g></g></g></svg>